<?xml version="1.0" encoding="UTF-8" standalone="no"?>
<!-- Created with Inkscape (http://www.inkscape.org/) -->

<svg
   xmlns:dc="http://purl.org/dc/elements/1.1/"
   xmlns:cc="http://creativecommons.org/ns#"
   xmlns:rdf="http://www.w3.org/1999/02/22-rdf-syntax-ns#"
   xmlns:svg="http://www.w3.org/2000/svg"
   xmlns="http://www.w3.org/2000/svg"
   xmlns:xlink="http://www.w3.org/1999/xlink"
   xmlns:sodipodi="http://sodipodi.sourceforge.net/DTD/sodipodi-0.dtd"
   xmlns:inkscape="http://www.inkscape.org/namespaces/inkscape"
   inkscape:version="0.47 r22583"
   version="1.1"
   id="svg2"
   height="1052.3622047"
   width="744.09448819"
   sodipodi:docname="New document 1">
  <defs
     id="defs4">
    <linearGradient
       id="linearGradient3992">
      <stop
         style="stop-color:#acdc32;stop-opacity:1;"
         offset="0"
         id="stop3994" />
      <stop
         id="stop3996"
         offset="0.25"
         style="stop-color:#8bd02c;stop-opacity:1;" />
      <stop
         style="stop-color:#6ac426;stop-opacity:1;"
         offset="0.78400636"
         id="stop3998" />
      <stop
         style="stop-color:#28ac1a;stop-opacity:1;"
         offset="1"
         id="stop4000" />
    </linearGradient>
    <linearGradient
       inkscape:collect="always"
       id="linearGradient3958">
      <stop
         style="stop-color:#00d400;stop-opacity:1;"
         offset="0"
         id="stop3960" />
      <stop
         style="stop-color:#00d400;stop-opacity:0;"
         offset="1"
         id="stop3962" />
    </linearGradient>
    <linearGradient
       id="linearGradient3946">
      <stop
         id="stop3986"
         offset="0"
         style="stop-color:#acdc32;stop-opacity:1;" />
      <stop
         style="stop-color:#8bd02c;stop-opacity:1;"
         offset="0.25"
         id="stop3988" />
      <stop
         id="stop3984"
         offset="0.5"
         style="stop-color:#6ac426;stop-opacity:1;" />
      <stop
         id="stop3954"
         offset="1"
         style="stop-color:#28ac1a;stop-opacity:1;" />
    </linearGradient>
    <linearGradient
       id="linearGradient3930">
      <stop
         style="stop-color:#000000;stop-opacity:1;"
         offset="0"
         id="stop3932" />
      <stop
         style="stop-color:#000000;stop-opacity:0;"
         offset="1"
         id="stop3934" />
    </linearGradient>
    <inkscape:perspective
       sodipodi:type="inkscape:persp3d"
       inkscape:vp_x="0 : 526.18109 : 1"
       inkscape:vp_y="0 : 1000 : 0"
       inkscape:vp_z="744.09448 : 526.18109 : 1"
       inkscape:persp3d-origin="372.04724 : 350.78739 : 1"
       id="perspective10" />
    <inkscape:perspective
       id="perspective2902"
       inkscape:persp3d-origin="0.5 : 0.33333333 : 1"
       inkscape:vp_z="1 : 0.5 : 1"
       inkscape:vp_y="0 : 1000 : 0"
       inkscape:vp_x="0 : 0.5 : 1"
       sodipodi:type="inkscape:persp3d" />
    <inkscape:perspective
       id="perspective2977"
       inkscape:persp3d-origin="0.5 : 0.33333333 : 1"
       inkscape:vp_z="1 : 0.5 : 1"
       inkscape:vp_y="0 : 1000 : 0"
       inkscape:vp_x="0 : 0.5 : 1"
       sodipodi:type="inkscape:persp3d" />
    <inkscape:perspective
       id="perspective3050"
       inkscape:persp3d-origin="0.5 : 0.33333333 : 1"
       inkscape:vp_z="1 : 0.5 : 1"
       inkscape:vp_y="0 : 1000 : 0"
       inkscape:vp_x="0 : 0.5 : 1"
       sodipodi:type="inkscape:persp3d" />
    <radialGradient
       inkscape:collect="always"
       xlink:href="#linearGradient3946"
       id="radialGradient3964"
       cx="390.83572"
       cy="453.25745"
       fx="390.83572"
       fy="453.25745"
       r="193.87308"
       gradientTransform="matrix(1,0,0,0.9987363,0,0.57278085)"
       gradientUnits="userSpaceOnUse" />
    <radialGradient
       inkscape:collect="always"
       xlink:href="#linearGradient3958"
       id="radialGradient3966"
       cx="390.83571"
       cy="453.25744"
       fx="390.83571"
       fy="453.25744"
       r="193.87307"
       gradientTransform="matrix(1,0,0,0.9987363,0,0.57278085)"
       gradientUnits="userSpaceOnUse" />
    <linearGradient
       inkscape:collect="always"
       xlink:href="#linearGradient3946"
       id="linearGradient3978"
       x1="286.46609"
       y1="275.13837"
       x2="394.34845"
       y2="455.85269"
       gradientUnits="userSpaceOnUse" />
    <linearGradient
       inkscape:collect="always"
       xlink:href="#linearGradient3992"
       id="linearGradient3990"
       gradientUnits="userSpaceOnUse"
       x1="286.46609"
       y1="275.13837"
       x2="394.34845"
       y2="455.85269" />
  </defs>
  <sodipodi:namedview
     id="base"
     pagecolor="#ffffff"
     bordercolor="#666666"
     borderopacity="1.0"
     inkscape:pageopacity="0.0"
     inkscape:pageshadow="2"
     inkscape:zoom="1"
     inkscape:cx="385.77171"
     inkscape:cy="714.08266"
     inkscape:document-units="px"
     inkscape:current-layer="svg2"
     showgrid="false"
     inkscape:snap-nodes="false"
     inkscape:window-width="1095"
     inkscape:window-height="1012"
     inkscape:window-x="303"
     inkscape:window-y="0"
     inkscape:window-maximized="0"
     showguides="true"
     inkscape:guide-bbox="true" />
  <metadata
     id="metadata7">
    <rdf:RDF>
      <cc:Work
         rdf:about="">
        <dc:format>image/svg+xml</dc:format>
        <dc:type
           rdf:resource="http://purl.org/dc/dcmitype/StillImage" />
        <dc:title></dc:title>
      </cc:Work>
    </rdf:RDF>
  </metadata>
  <path
     style="fill:url(#linearGradient3990);fill-opacity:1;stroke:none;stroke-width:0.71428572999999995;stroke-opacity:1"
     d="m 308.32743,319.09486 c -4.34124,-5.07176 -4.93933,-11.38677 -1.07842,-11.38677 1.57199,0 5.34976,1.79016 7.19849,3.41113 1.94883,1.70872 1.70523,7.34076 -0.40318,9.3215 -2.26576,2.12857 -2.86331,1.9879 -5.71689,-1.34586 l 0,0 z"
     id="path3910"
     inkscape:export-filename="/home/robertw/public_html/mindhub/test/images/mindhub_logo.png"
     inkscape:export-xdpi="23.209999"
     inkscape:export-ydpi="23.209999" />
  <path
     style="fill:url(#radialGradient3964);fill-opacity:1.0;stroke:url(#radialGradient3966);stroke-width:0.71428572999999995;stroke-opacity:1"
     d="m 373.1975,646.22128 c -3.92857,-0.25187 -10.03571,-0.96595 -13.57143,-1.58684 -3.53571,-0.62088 -8.35714,-1.34926 -10.71428,-1.61861 -5.01887,-0.5735 -7.52145,-1.70162 -9.57979,-4.31837 -2.97091,-3.77689 -1.15283,-10.03073 3.80724,-13.09622 2.82924,-1.74857 5.57073,-1.85043 9.78488,-0.36359 3.32191,1.17203 8.01545,1.51472 10.39632,0.75906 1.6861,-0.53515 3.08768,-3.2483 3.09995,-6.0008 0.005,-1.06187 0.8083,-3.32955 1.78572,-5.0393 0.97741,-1.70974 1.77711,-3.99196 1.77711,-5.0716 0,-2.7699 4.91512,-10.74115 7.60256,-12.32967 2.62946,-1.55424 4.17516,-4.75553 3.43586,-7.11602 -0.28592,-0.91289 -1.43881,-3.00155 -2.56198,-4.64147 -2.9114,-4.25086 -3.50412,-6.16077 -4.28392,-13.80404 -1.67534,-16.42086 -6.92609,-26.93214 -15.16427,-30.35676 -4.24912,-1.76637 -16.77412,-3.42379 -22.87339,-3.02682 -10.98729,0.7151 -17.73571,4.55943 -23.77832,13.54563 -5.24697,7.80293 -6.36447,13.11766 -5.51007,26.20527 1.57656,24.1493 -0.0932,30.34092 -8.60193,31.89769 -1.74814,0.31984 -3.90355,1.51394 -5.71429,3.16573 -5.50362,5.02051 -6.9949,4.94639 -12.9074,-0.64152 -1.57143,-1.48517 -5.42857,-4.74327 -8.57143,-7.24025 -16.47306,-13.08772 -46.78571,-47.6262 -46.78571,-53.30802 0,-3.75801 5.49832,-10.24095 8.68557,-10.24095 1.30556,0 1.43343,0.29144 1.01847,2.32142 -1.78369,8.72586 -1.46617,9.81305 3.50013,11.98468 1.57699,0.68957 4.13785,2.57422 5.69079,4.18812 3.52055,3.65872 5.83952,3.83041 9.76313,0.72285 2.70769,-2.14452 2.89744,-2.18625 6.26694,-1.37792 6.52517,1.56537 11.29846,-1.15087 15.09291,-8.5886 2.38171,-4.66854 2.08312,-7.26718 -1.40303,-12.21053 -3.65955,-5.18925 -3.2292,-6.4766 1.55439,-4.64972 5.77485,2.20543 8.6242,1.5633 16.05719,-3.6187 4.6969,-3.2745 10.06443,-9.30143 12.45232,-13.9821 2.52127,-4.94208 4.89262,-13.2854 4.89262,-17.21408 0,-8.98932 -3.98122,-19.48387 -9.16964,-24.1713 -2.43419,-2.19914 -3.35358,-2.54147 -8.03943,-2.99348 -2.91002,-0.28071 -7.92707,-1.16634 -11.14903,-1.96807 -5.52819,-1.3756 -6.04824,-1.3929 -9.23439,-0.30727 -4.6214,1.57466 -6.99466,1.44683 -10.4946,-0.56528 -1.64139,-0.94362 -4.02268,-1.93206 -5.29177,-2.19653 -2.06856,-0.43107 -2.69708,-0.11656 -6.07143,3.03823 -2.6454,2.47327 -5.30847,4.10193 -8.96106,5.48033 -2.85839,1.07869 -5.67089,2.43507 -6.25,3.0142 -1.85807,1.85807 -1.3087,6.69987 1.20642,10.63247 1.50955,2.36031 2.27996,4.4809 2.32143,6.38985 0.0573,2.6378 -0.15281,2.96204 -2.73709,4.22358 -5.19476,2.53587 -8.41038,2.32626 -18.71613,-1.22005 -11.56359,-3.97914 -13.53762,-4.98616 -14.88618,-7.59398 -1.50869,-2.91748 -2.3949,-11.947 -2.93425,-29.8967 -0.49638,-16.52005 0.66513,-34.49791 2.92192,-45.22555 0.61177,-2.90802 1.42212,-7.47153 1.80078,-10.14114 0.37867,-2.66961 1.301,-6.04461 2.04962,-7.5 2.59836,-5.05142 8.02307,-8.76325 10.70753,-7.32657 2.39637,1.2825 10.07908,10.10265 11.85851,13.61419 2.2359,4.41234 2.23696,6.19787 0.006,10.10045 -3.31505,5.79887 -2.27032,7.66391 5.57086,9.94502 8.04778,2.34122 9.19981,2.90505 12.81482,6.2719 l 3.39428,3.16129 4.46286,-0.52201 c 2.45461,-0.2871 5.42718,-0.43525 6.60575,-0.32923 2.8907,0.26005 9.7024,0.22165 15.35715,-0.0866 3.82411,-0.20845 5.08372,0.0229 7.14285,1.31205 3.12073,1.95375 6.39996,2.0033 8.77812,0.13264 2.94368,-2.3155 8.71358,-9.9863 11.13787,-14.80723 3.61176,-7.18234 4.37178,-11.32559 4.35226,-23.72643 -0.02,-12.72211 -0.71182,-16.6889 -3.41689,-19.59217 -2.30104,-2.46964 -11.30574,-6.83695 -18.6816,-9.06064 -6.03541,-1.81957 -5.48841,-1.88314 -21.81261,2.53516 -10.76119,2.91261 -13.16694,3.04988 -18.49763,1.05542 -3.82459,-1.43096 -3.94015,-1.55726 -5.39177,-5.89286 -0.81588,-2.4368 -3.40846,-7.47102 -5.76129,-11.18713 -2.35284,-3.71612 -4.27789,-7.1619 -4.27789,-7.6573 0,-2.76565 24.73673,-29.73929 38.31881,-41.78394 9.80513,-8.69522 10.84827,-9.34817 13.12677,-8.21671 2.53612,1.2594 5.33989,6.91061 6.75659,13.61845 1.18603,5.61565 1.36422,5.93178 5.72456,10.15552 3.3003,3.19693 5.79677,4.87842 9.36179,6.30559 9.17209,3.67184 11.67246,6.17275 11.6956,11.69814 0.0237,5.66393 1.43388,13.73029 2.90612,16.62363 1.93826,3.80917 9.67287,10.59351 14.82716,13.0055 4.02551,1.88376 5.06427,2.07858 9.3,1.74422 4.41585,-0.34859 20.66529,-4.61406 23.63788,-6.20495 2.40625,-1.28777 11.35487,-11.44925 12.90787,-14.65732 1.72074,-3.55458 1.5928,-4.06075 -2.45296,-9.70489 -2.67914,-3.73758 -2.62492,-6.33921 0.24413,-11.71568 2.91623,-5.46489 2.83748,-7.33312 -0.47823,-11.34559 -3.41991,-4.13856 -7.30529,-11.67229 -7.30494,-14.16422 6.1e-4,-4.17402 -4.90881,-5.86376 -11.01067,-3.78967 -2.46944,0.83939 -4.59077,1.10618 -6.27826,0.78961 -2.77096,-0.51983 -7.65339,-4.43348 -11.34364,-9.0928 l -2.28315,-2.88271 1.62784,-3.25944 c 1.43155,-2.86639 1.57551,-3.93807 1.19386,-8.88724 -0.47073,-6.1043 0.11277,-8.68944 2.14673,-9.51082 0.71759,-0.28978 4.19757,-0.95873 7.73329,-1.48654 3.53571,-0.52781 8.67857,-1.46328 11.42857,-2.07884 6.98641,-1.56382 33.34669,-2.2132 47.96616,-1.18164 11.60985,0.8192 33.21299,4.62541 38.28793,6.74585 1.35457,0.56597 3.77742,1.25114 5.38414,1.52259 5.26678,0.88982 8.19008,5.42972 6.33633,9.84033 -1.32052,3.1419 -7.71273,10.67723 -11.2877,13.3063 -3.1836,2.34124 -3.57958,2.30559 -8.43385,-0.75947 -3.32919,-2.10211 -7.52041,-2.63857 -10.04758,-1.28607 -1.86617,0.99874 -7.67548,8.68798 -9.0242,11.94447 -0.61357,1.4815 -2.23951,4.07295 -3.61319,5.75876 -3.25483,3.99444 -3.79439,7.60379 -1.72903,11.56627 1.99699,3.83131 1.91507,5.86546 -0.39493,9.80718 -3.29099,5.61566 -2.3565,15.21673 2.43811,25.04936 2.31264,4.7427 3.12725,5.69914 6.94042,8.14875 2.37613,1.52646 6.97892,4.0796 10.22841,5.67365 9.96408,4.88794 19.35716,4.49967 29.08689,-1.20233 4.19944,-2.46104 8.8046,-6.57249 10.04206,-8.96548 1.25589,-2.42863 2.41313,-13.16108 2.45686,-22.78537 0.0462,-10.17618 1.48002,-15.80926 5.54008,-21.76598 7.18397,-10.53995 15.45,-17.51974 20.74831,-17.51974 1.12428,0 3.48127,0.95192 5.23776,2.11537 3.87112,2.56412 39.90845,38.82883 39.90845,40.16025 0,0.51878 -1.13177,2.5351 -2.51505,4.4807 -1.38328,1.94561 -2.7123,4.77102 -2.95339,6.27868 -0.3063,1.91556 -1.26992,3.52922 -3.19923,5.35743 -2.63417,2.49614 -2.7609,2.82212 -2.7609,7.10177 0,4.4777 -0.005,4.48898 -2.9958,6.45995 -2.81221,1.85342 -3.4141,1.96337 -9.82143,1.79415 -4.81215,-0.12709 -8.61663,0.23507 -12.89706,1.22771 -3.33929,0.77439 -9.58656,1.75943 -13.88285,2.18899 -11.89256,1.18904 -11.70341,1.12099 -12.59282,4.5307 -0.42282,1.62094 -1.82769,4.56461 -3.12192,6.5415 -2.51035,3.83445 -5.40241,14.23727 -5.40241,19.4326 0,4.16658 4.27276,14.97216 7.85663,19.869 4.50546,6.15605 20.06453,21.5565 22.36081,22.13283 3.27693,0.82245 5.33405,-0.22654 8.2894,-4.22704 2.39485,-3.24179 3.34541,-3.95127 6.26531,-4.67625 1.89317,-0.47005 5.16848,-1.63879 7.27845,-2.5972 4.48346,-2.03651 6.10508,-2.14183 9.72032,-0.63129 4.31515,1.80299 6.73202,1.15845 9.52384,-2.53985 2.76611,-3.66424 6.34597,-6.11339 10.49096,-7.17736 1.57142,-0.40336 4.04537,-1.24456 5.49766,-1.86934 5.30129,-2.2806 6.24237,-9.35751 1.99131,-14.97464 -2.37934,-3.14393 -2.57362,-4.48098 -1.07282,-7.38321 1.30254,-2.51884 5.13395,-3.93263 8.79582,-3.24566 5.83765,1.09515 6.3956,2.13659 8.99793,16.79496 4.58346,25.81763 5.27857,46.87725 2.25254,68.24433 -3.08466,21.78103 -3.19348,21.93967 -15.33432,22.35523 -6.57167,0.22493 -8.20877,0.0492 -10.98553,-1.17907 -2.76043,-1.22106 -3.399,-1.89721 -4.14577,-4.38973 -0.74733,-2.49436 -0.69671,-3.53651 0.32997,-6.79351 1.55204,-4.92365 1.71452,-8.88715 0.39847,-9.72019 -0.55604,-0.35196 -2.0398,-0.64486 -3.29725,-0.65087 -1.25745,-0.006 -3.98959,-0.36909 -6.07143,-0.80683 -3.31813,-0.69768 -4.36984,-1.40273 -8.52395,-5.71428 -2.60633,-2.70512 -5.31496,-4.9184 -6.01916,-4.9184 -0.70419,0 -2.91102,1.10994 -4.90406,2.46652 l -3.6237,2.46653 -9.28572,-1.78874 c -5.10714,-0.9838 -10.41071,-1.62374 -11.78571,-1.42206 -1.375,0.20166 -4.68701,0.66052 -7.36004,1.01968 -6.1218,0.82257 -7.23663,1.84203 -11.28287,10.31769 l -3.1428,6.58324 0.0868,10 c 0.1043,12.01249 1.05443,17.59463 4.01754,23.6035 l 2.22698,4.51609 -1.96597,2.83689 c -2.67493,3.85993 -2.43943,7.50823 0.50645,7.84583 1.10808,0.12698 2.988,-0.10842 4.17762,-0.52313 2.81521,-0.98139 3.88141,-0.39142 10.59341,5.86183 6.374,5.93833 13.85627,11.71432 22.32992,17.23772 7.64998,4.98651 10.61747,6.31388 18.56294,8.30325 4.98652,1.24851 6.25,1.82693 6.25,2.86122 0,3.44581 -37.07702,39.24251 -40.64609,39.24251 -1.93655,0 -9.24152,-4.59225 -12.69245,-7.97909 -2.39184,-2.34741 -3.72857,-3.04948 -6.70067,-3.51931 -2.04202,-0.3228 -3.87412,-0.74825 -4.07132,-0.94546 -0.19721,-0.19721 0.004,-1.79891 0.44742,-3.55936 0.97722,-3.88091 1.0586,-22.76095 0.12273,-28.47497 -0.41194,-2.51513 -1.64482,-5.71612 -3.16379,-8.21428 -1.36885,-2.25128 -2.8322,-5.41735 -3.25189,-7.0357 -0.85102,-3.2816 -3.22481,-6.7004 -4.65233,-6.7004 -0.51329,0 -2.6596,-0.7872 -4.76958,-1.74933 -2.50795,-1.14362 -7.32498,-2.25697 -13.91158,-3.21538 -13.33466,-1.94032 -14.83574,-1.92624 -20.28188,0.19027 -8.9504,3.47834 -11.75171,4.99867 -15.32529,8.31737 -1.98181,1.84045 -4.64792,4.06809 -5.92471,4.95032 -3.12274,2.15772 -3.21578,5.77207 -0.25386,9.8609 4.14217,5.71809 4.45092,6.82124 4.21883,15.07362 -0.20797,7.39486 -0.15103,7.72723 1.74932,10.21108 2.5081,3.27822 2.47333,4.95652 -0.17857,8.61737 -1.17858,1.62697 -2.14286,3.69392 -2.14286,4.59323 0,0.8993 1.28061,3.11472 2.8458,4.92316 2.01305,2.32589 3.28436,4.79456 4.34453,8.4363 2.33084,8.00654 4.30555,12.634 5.7128,13.38714 2.08265,1.1146 7.28052,0.79529 11.67702,-0.71733 4.04138,-1.39044 4.13191,-1.39089 7.69198,-0.0382 6.72154,2.55399 7.7431,4.75106 4.12505,8.87179 -3.28485,3.74124 -7.03154,5.14113 -20.32575,7.59441 -9.70532,1.79099 -14.6521,2.30303 -24.64286,2.55075 -6.875,0.17048 -15.07143,0.39436 -18.21429,0.49752 -3.14285,0.10316 -8.92857,-0.0185 -12.85714,-0.27039 l 0,-3e-5 z m -7.95347,-117.13646 c 3.92929,-3.09078 1.28768,-9.94816 -3.83224,-9.94816 -4.66138,0 -7.65067,6.67641 -4.53215,10.12233 1.62981,1.80093 5.96831,1.71059 8.36439,-0.17417 l 0,0 z m 59.73919,-1.30103 c 4.27442,-3.08403 1.3646,-8.64713 -4.52293,-8.64713 -3.48806,0 -4.53492,0.82497 -5.18752,4.08796 -1.11514,5.57569 4.5894,8.25404 9.71045,4.55917 l 0,0 z m -47.79833,-14.7749 c 2.53273,-2.42651 3.50334,-5.62188 3.50863,-11.5508 l 0.004,-4.46428 4.89223,0 c 2.69073,0 7.27109,0.20254 10.17857,0.45009 l 5.28634,0.4501 0.004,5.57363 c 0.004,6.35096 1.16745,8.68601 5.40442,10.8465 7.50224,3.82548 16.3593,-1.52704 16.62781,-10.04855 0.099,-3.14156 -0.17773,-3.72745 -3.64287,-7.71264 -2.0625,-2.37205 -3.75,-4.81129 -3.75,-5.42054 0,-0.60925 1.70862,-2.42592 3.79694,-4.03704 2.08831,-1.61112 4.84042,-4.38235 6.1158,-6.15829 1.27539,-1.77594 2.69213,-3.22898 3.14833,-3.22898 0.45619,0 2.66461,1.92857 4.90759,4.28572 3.51029,3.68895 4.43614,4.28571 6.64911,4.28571 7.61955,0 14.48117,-8.17956 12.53987,-14.94846 -1.61898,-5.64505 -5.28054,-8.29373 -10.66878,-7.71754 -1.80102,0.19259 -3.81315,0.57501 -4.4714,0.84981 -0.83422,0.34827 -1.55961,-0.054 -2.39418,-1.32773 -1.03602,-1.58117 -1.12785,-3.03238 -0.68154,-10.77031 l 0.51572,-8.94291 5.09266,-0.005 c 5.58493,-0.005 7.43189,-0.8231 10.71591,-4.74557 2.74216,-3.27527 3.07678,-6.01632 1.18298,-9.69021 -2.0639,-4.00389 -4.82244,-6.92652 -7.69909,-8.15707 -3.05816,-1.3082 -6.00256,-0.1219 -10.77324,4.3405 -1.91513,1.79168 -3.97469,3.25735 -4.57679,3.25735 -1.31197,0 -13.39997,-12.52155 -13.39997,-13.88057 0,-0.52243 1.20536,-1.85888 2.67857,-2.96988 5.37922,-4.05664 6.19468,-7.12964 3.40504,-12.83147 -2.27199,-4.64376 -5.30071,-6.69535 -10.70817,-7.25345 -3.92445,-0.40504 -3.94587,-0.39646 -7.24555,2.90323 l -3.30947,3.30947 0.31475,5.99675 0.31475,5.99675 -9.68925,0.32605 c -11.48419,0.38645 -11.47028,0.39424 -10.9467,-6.1284 0.39993,-4.98237 -0.46888,-7.41929 -3.73222,-10.46848 -1.61633,-1.51026 -2.59946,-1.78572 -6.37347,-1.78572 -3.81122,0 -4.85394,0.29869 -7.14612,2.04702 -3.63428,2.772 -5.41341,5.90322 -5.41663,9.53313 -0.002,2.63875 0.48041,3.5501 3.9259,7.41154 5.03664,5.64466 5.03764,5.81803 0.0549,9.53592 -1.54124,1.15001 -4.30351,3.64844 -6.13837,5.55207 -3.61775,3.75336 -4.70109,3.87188 -6.57493,0.71935 -1.81848,-3.05941 -5.05891,-5.80843 -7.36743,-6.25018 -5.09214,-0.97444 -13.18842,6.62251 -13.18842,12.37506 0,2.91601 2.20172,7.90439 4.34475,9.8438 1.21259,1.09738 2.43963,1.27949 7.4534,1.10621 7.24868,-0.25054 6.9209,-0.84716 6.62259,12.05465 -0.20333,8.79363 -0.23216,8.93221 -1.90739,9.16912 -0.9355,0.13229 -2.74551,-0.32201 -4.02222,-1.00957 -2.26488,-1.21971 -2.40493,-1.2082 -5.76195,0.47375 -4.2456,2.12715 -6.06499,4.54006 -6.52929,8.65928 -0.42844,3.80106 1.43141,7.97752 4.8236,10.83186 1.79878,1.51358 2.96722,1.87556 6.05404,1.87556 3.59592,0 4.09364,-0.23055 8.30867,-3.8489 2.466,-2.1169 4.81828,-3.71314 5.22729,-3.5472 0.40901,0.16593 1.70794,1.61757 2.88651,3.22587 1.17858,1.60829 3.83036,4.20743 5.89286,5.77588 4.90128,3.7272 4.87759,5.00525 -0.17857,9.63631 -4.05956,3.71824 -4.42098,4.68887 -3.48624,9.36259 1.55465,7.7732 13.43903,12.07315 18.9022,6.83911 l 0,0 z M 322.8953,487.04875 c 1.16772,-1.16772 2.08792,-2.85668 2.08792,-3.83224 0,-3.8749 -5.1954,-7.31522 -8.43158,-5.58327 -2.90063,1.55238 -3.77245,7.77631 -1.47672,10.54249 1.45275,1.75046 5.5306,1.16281 7.82038,-1.12698 l 0,0 z m 143.72194,-0.84557 c 0.9197,-1.13579 1.23023,-2.5328 1.07873,-4.85288 -0.18121,-2.77493 -0.48793,-3.3542 -2.06876,-3.90704 -2.71172,-0.94833 -6.90251,0.041 -7.87557,1.85918 -1.32154,2.46931 -1.02746,7.05589 0.52703,8.21984 1.93031,1.44538 6.71263,0.68884 8.33857,-1.3191 z M 321.50955,429.32243 c 2.41337,-1.42561 3.1153,-3.42172 2.45011,-6.9675 -0.53099,-2.83045 -2.09887,-3.93255 -5.5945,-3.93255 -3.02521,0 -4.48554,2.33395 -4.38229,7.00393 0.10845,4.90526 3.15162,6.48053 7.52668,3.89612 l 0,0 z m 143.0428,-0.46607 c 4.54724,-1.89996 4.78602,-8.53899 0.38889,-10.81283 -4.70944,-2.43535 -7.91001,-0.45713 -7.9916,4.93945 -0.0584,3.8669 1.54143,6.04095 5.0208,6.82269 0.11083,0.0249 1.2727,-0.40229 2.58191,-0.94931 l 0,0 z M 364.35214,386.35578 c 2.36109,-1.9119 2.36109,-6.81205 0,-8.72395 -2.02537,-1.64004 -5.62439,-1.75123 -7.78142,-0.24038 -2.15047,1.50625 -2.24516,6.80184 -0.15893,8.88807 1.82677,1.82677 5.73223,1.86428 7.94035,0.0763 z m 58.76348,0.54537 c 2.10371,-0.95852 3.61768,-4.19766 2.94807,-6.30742 -0.81027,-2.55294 -3.2903,-4.31602 -6.03659,-4.2915 -6.21843,0.0556 -8.15222,6.00002 -3.21518,9.88349 2.17987,1.71469 3.72554,1.89011 6.3037,0.71543 z"
     id="path3908"
     inkscape:export-filename="/home/robertw/public_html/mindhub/test/images/mindhub_logo.png"
     inkscape:export-xdpi="23.209999"
     inkscape:export-ydpi="23.209999" />
  <g
     inkscape:label="Layer 1"
     inkscape:groupmode="layer"
     id="layer1" />
</svg>
